<?xml version="1.0" encoding="utf-8"?>
<!-- Generator: Adobe Illustrator 23.0.3, SVG Export Plug-In . SVG Version: 6.00 Build 0)  -->
<svg version="1.1" id="Layer_1" xmlns="http://www.w3.org/2000/svg" xmlns:xlink="http://www.w3.org/1999/xlink" x="0px" y="0px"
	 viewBox="0 0 480 160" style="enable-background:new 0 0 480 160;" xml:space="preserve">
<style type="text/css">
	.st0{fill:#FFFFFF;}
	.st1{fill-rule:evenodd;clip-rule:evenodd;fill:#FFFFFF;}
</style>
<g>
	<g>
		<path class="st0" d="M46.6,119.3l5.5-31.2h14.7c1.8,0,3.4,0.2,4.7,0.6c1.3,0.4,2.4,0.9,3.3,1.6c0.9,0.7,1.5,1.4,2,2.3
			c0.4,0.9,0.6,1.8,0.6,2.8c0,2.1-0.7,3.9-2.2,5.3c-1.5,1.5-3.6,2.4-6.3,2.9l6.7,15.7h-9.5l-7.2-16.8h3.8c1.2,0,2.2-0.2,3.1-0.6
			c0.9-0.4,1.7-0.9,2.3-1.6c0.6-0.7,1.1-1.5,1.4-2.4c0.3-0.9,0.5-1.9,0.5-3c0-0.7-0.1-1.3-0.3-1.9c-0.2-0.6-0.6-1.2-1-1.6
			c-0.4-0.5-1-0.8-1.7-1.1c-0.7-0.3-1.5-0.4-2.4-0.4h-4l-5.2,29.4H46.6z"/>
		<path class="st0" d="M78.7,99.1c0.9-2.1,2.2-4,3.9-5.7c1.7-1.7,3.8-3,6.2-4.1s5.2-1.6,8.2-1.6c2.8,0,5.2,0.4,7.3,1.1
			c2,0.7,3.7,1.8,5,3c1.3,1.3,2.3,2.8,2.9,4.5c0.6,1.7,0.9,3.6,0.9,5.5c0,2.2-0.4,4.3-1.3,6.4c-0.8,2.1-2.1,4-3.7,5.7
			c-1.6,1.7-3.7,3-6.1,4.1c-2.4,1-5.2,1.6-8.4,1.6c-2.7,0-5.1-0.4-7.2-1.1c-2-0.7-3.8-1.8-5.1-3c-1.4-1.3-2.4-2.8-3.1-4.5
			c-0.7-1.7-1-3.6-1-5.5C77.3,103.3,77.7,101.2,78.7,99.1z M103.8,97.6c-0.3-1.3-0.7-2.5-1.3-3.4c-0.6-1-1.3-1.7-2.2-2.2
			c-0.9-0.5-2-0.8-3.3-0.8c-1.6,0-3.1,0.4-4.4,1.2c-1.3,0.8-2.5,1.9-3.4,3.2c-0.9,1.3-1.7,2.8-2.2,4.6c-0.5,1.7-0.8,3.5-0.8,5.4
			c0,1.6,0.2,3,0.5,4.3c0.3,1.3,0.8,2.5,1.5,3.4c0.7,0.9,1.5,1.7,2.5,2.2c1,0.5,2.2,0.8,3.6,0.8c1.7,0,3.2-0.4,4.5-1.2
			c1.2-0.8,2.3-1.9,3.1-3.2c0.8-1.3,1.4-2.9,1.8-4.6c0.4-1.7,0.6-3.5,0.6-5.4C104.2,100.4,104.1,98.9,103.8,97.6z"/>
		<path class="st0" d="M124.4,109.8c0.3,1.3,0.8,2.5,1.6,3.4c0.7,0.9,1.6,1.7,2.7,2.2c1.1,0.5,2.4,0.8,4,0.8c1.1,0,2.1-0.1,3-0.4
			c0.9-0.2,1.7-0.5,2.4-0.9c0.7-0.4,1.3-0.7,1.9-1.2c0.5-0.4,1-0.8,1.5-1.2l2.3,2.3c-0.5,0.4-1.2,0.9-1.9,1.5
			c-0.8,0.6-1.6,1.1-2.6,1.5c-1,0.5-2.2,0.9-3.5,1.2c-1.3,0.3-2.7,0.5-4.3,0.5c-2.7,0-5.1-0.4-7.2-1.1c-2-0.7-3.8-1.8-5.1-3
			c-1.4-1.3-2.4-2.8-3.1-4.5c-0.7-1.7-1-3.6-1-5.5c0-2.2,0.5-4.3,1.4-6.4c0.9-2.1,2.2-4,4-5.7c1.7-1.7,3.8-3,6.3-4.1
			c2.5-1,5.3-1.6,8.4-1.6c1.5,0,2.8,0.1,4,0.4c1.2,0.3,2.2,0.6,3.1,1c0.9,0.4,1.7,1,2.4,1.5c0.7,0.6,1.3,1.2,1.8,1.8l-2.6,1.9
			c-0.4-0.4-0.8-0.8-1.2-1.2c-0.5-0.4-1-0.8-1.7-1.1c-0.7-0.3-1.5-0.6-2.4-0.8c-1-0.2-2.1-0.3-3.3-0.3c-1.7,0-3.2,0.4-4.6,1.2
			c-1.4,0.8-2.5,1.9-3.5,3.2c-0.9,1.3-1.7,2.8-2.2,4.6c-0.5,1.7-0.8,3.5-0.8,5.4C123.9,107.1,124,108.5,124.4,109.8z"/>
		<path class="st0" d="M174.4,88.1h3.3l-11.2,10.1l12.2,21.1h-10.2l-8.6-15.1l-2.2,2l-2.4,13.1h-8.9l5.5-31.2h8.9l-2.6,14.7
			L174.4,88.1z"/>
		<path class="st0" d="M200.2,92.1c-1-0.5-2.3-0.8-4-0.8c-1.5,0-2.7,0.3-3.6,1c-0.9,0.7-1.3,1.6-1.3,2.9c0,0.5,0.2,1,0.5,1.5
			c0.3,0.4,0.8,0.8,1.3,1.2c0.5,0.4,1.1,0.7,1.6,0.9c0.6,0.3,1.1,0.5,1.6,0.7c1.3,0.5,2.4,1.1,3.4,1.7c1,0.6,1.9,1.3,2.6,2.1
			c0.7,0.8,1.2,1.7,1.6,2.7c0.4,1,0.6,2.1,0.6,3.4c0,1.5-0.3,2.9-1,4.2c-0.7,1.3-1.6,2.3-2.9,3.2c-1.2,0.9-2.7,1.6-4.5,2.1
			c-1.7,0.5-3.7,0.7-5.8,0.7c-2.8,0-5.2-0.6-7-1.8c-1.8-1.2-3.2-2.8-4.3-4.8l3.3-1.5c0.4,0.6,0.7,1.2,1.2,1.7
			c0.4,0.6,0.9,1.1,1.5,1.5c0.6,0.4,1.3,0.8,2.1,1.1c0.8,0.3,1.8,0.4,3,0.4c0.8,0,1.5-0.1,2.2-0.4c0.7-0.3,1.3-0.6,1.8-1.1
			c0.5-0.5,0.9-1,1.2-1.6c0.3-0.6,0.4-1.3,0.4-1.9c0-1-0.4-2-1.1-2.9c-0.7-0.9-1.7-1.6-2.9-2.1c-1.4-0.6-2.7-1.1-3.8-1.7
			c-1.1-0.6-2.1-1.2-2.9-1.9c-0.8-0.7-1.4-1.5-1.9-2.4c-0.4-0.9-0.7-2-0.7-3.2c0-1.3,0.3-2.5,0.8-3.6c0.5-1.1,1.4-2,2.5-2.8
			c1.1-0.8,2.5-1.4,4.1-1.9c1.6-0.5,3.6-0.7,5.8-0.7c1.4,0,2.6,0.1,3.7,0.4c1.1,0.3,2,0.6,2.8,1c0.8,0.4,1.5,0.9,2.1,1.4
			c0.6,0.5,1.1,1.1,1.5,1.7l-3.1,1.9C202,93.4,201.2,92.6,200.2,92.1z"/>
		<path class="st0" d="M232.9,91.5h-7.4l-4.9,27.8h-8.9l4.9-27.8H209l0.6-3.3h23.9L232.9,91.5z"/>
		<path class="st0" d="M250.2,88.1l7.9,31.2h-9l-2.4-9.3h-12.8l-5.7,9.3h-3.3l18.8-31.2H250.2z M235.6,106.7h10.1l-3-11.5
			L235.6,106.7z"/>
		<path class="st0" d="M261.9,119.3l5.5-31.2h14.7c1.8,0,3.4,0.2,4.7,0.6c1.3,0.4,2.4,0.9,3.3,1.6c0.9,0.7,1.5,1.4,2,2.3
			c0.4,0.9,0.6,1.8,0.6,2.8c0,2.1-0.7,3.9-2.2,5.3c-1.5,1.5-3.6,2.4-6.3,2.9l6.7,15.7h-9.5l-7.2-16.8h3.8c1.2,0,2.2-0.2,3.1-0.6
			c0.9-0.4,1.7-0.9,2.3-1.6c0.6-0.7,1.1-1.5,1.4-2.4c0.3-0.9,0.5-1.9,0.5-3c0-0.7-0.1-1.3-0.3-1.9c-0.2-0.6-0.6-1.2-1-1.6
			c-0.4-0.5-1-0.8-1.7-1.1c-0.7-0.3-1.5-0.4-2.4-0.4h-4l-5.2,29.4H261.9z"/>
		<path class="st0" d="M335.5,91.5h-7.4l-4.9,27.8h-8.9l4.9-27.8h-7.6l0.6-3.3h23.9L335.5,91.5z"/>
		<path class="st0" d="M334.4,119.3l5.5-31.2h14.7c1.8,0,3.4,0.2,4.7,0.6c1.3,0.4,2.4,0.9,3.3,1.6s1.5,1.4,2,2.3
			c0.4,0.9,0.6,1.8,0.6,2.8c0,2.1-0.7,3.9-2.2,5.3c-1.5,1.5-3.6,2.4-6.3,2.9l6.7,15.7h-9.5l-7.2-16.8h3.8c1.2,0,2.2-0.2,3.1-0.6
			c0.9-0.4,1.7-0.9,2.3-1.6c0.6-0.7,1.1-1.5,1.4-2.4c0.3-0.9,0.5-1.9,0.5-3c0-0.7-0.1-1.3-0.3-1.9c-0.2-0.6-0.6-1.2-1-1.6
			c-0.4-0.5-1-0.8-1.7-1.1c-0.7-0.3-1.5-0.4-2.4-0.4h-4l-5.2,29.4H334.4z"/>
		<path class="st0" d="M390.9,88.1l7.9,31.2h-9l-2.4-9.3h-12.8l-5.7,9.3h-3.3l18.8-31.2H390.9z M376.4,106.7h10.1l-3-11.5
			L376.4,106.7z"/>
		<path class="st0" d="M414.5,105.2L425,88.1h3.3l-19.1,31.7l-8-31.7h8.9L414.5,105.2z"/>
		<path class="st0" d="M440,91.5l-1.8,10.1h13.3l-0.6,3.3h-13.3l-2,11h14.2l-0.6,3.3h-23.1l5.5-31.2h22.7l-0.6,3.3H440z"/>
		<path class="st0" d="M475.9,116l-0.6,3.3h-21.5l5.5-31.2h8.9l-4.9,27.8H475.9z"/>
	</g>
	<g>
		<path class="st0" d="M50.2,133.5h-3.5c-0.2,0-0.4-0.2-0.4-0.4v-0.6c0-0.2,0.2-0.4,0.4-0.4h8.5c0.2,0,0.4,0.2,0.4,0.4v0.6
			c0,0.2-0.2,0.4-0.4,0.4h-3.5v12.4c0,0.2-0.2,0.4-0.4,0.4h-0.8c-0.2,0-0.4-0.2-0.4-0.4V133.5z"/>
		<path class="st0" d="M66.7,132.5c0-0.2,0.2-0.4,0.4-0.4h5.2c2.4,0,4.4,1.9,4.4,4.3c0,1.9-1.2,3.4-3,4.1l2.8,5.1
			c0.1,0.3,0,0.6-0.3,0.6h-1c-0.2,0-0.3-0.1-0.3-0.2l-2.7-5.3h-3.9v5.1c0,0.2-0.2,0.4-0.4,0.4h-0.8c-0.2,0-0.4-0.2-0.4-0.4V132.5z
			 M72.2,139.4c1.6,0,2.9-1.3,2.9-2.9c0-1.5-1.4-2.8-2.9-2.8h-3.9v5.8H72.2z"/>
		<path class="st0" d="M86.9,145.7l6.1-13.6c0.1-0.1,0.2-0.2,0.3-0.2h0.2c0.2,0,0.3,0.1,0.3,0.2l6.1,13.6c0.1,0.3,0,0.5-0.3,0.5
			h-0.8c-0.2,0-0.3-0.1-0.3-0.2l-1.5-3.3h-7.2l-1.5,3.3c0,0.1-0.2,0.2-0.3,0.2h-0.8C87,146.3,86.8,146,86.9,145.7z M96.5,141.5
			c-1-2.2-2-4.4-2.9-6.6h-0.2l-2.9,6.6H96.5z"/>
		<path class="st0" d="M108.4,132.7c-0.1-0.3,0-0.5,0.3-0.5h0.8c0.2,0,0.3,0.1,0.3,0.2l5,11.3h0.1l5-11.3c0-0.1,0.2-0.2,0.3-0.2h0.8
			c0.3,0,0.5,0.3,0.3,0.5l-6.1,13.6c-0.1,0.1-0.2,0.2-0.3,0.2h-0.2c-0.1,0-0.3-0.1-0.3-0.2L108.4,132.7z"/>
		<path class="st0" d="M132.6,132.5c0-0.2,0.2-0.4,0.4-0.4h7.9c0.2,0,0.4,0.2,0.4,0.4v0.6c0,0.2-0.2,0.4-0.4,0.4h-6.8v4.9h5.8
			c0.2,0,0.4,0.2,0.4,0.4v0.6c0,0.2-0.2,0.4-0.4,0.4h-5.8v5.1h6.8c0.2,0,0.4,0.2,0.4,0.4v0.6c0,0.2-0.2,0.4-0.4,0.4H133
			c-0.2,0-0.4-0.2-0.4-0.4V132.5z"/>
		<path class="st0" d="M153.4,132.5c0-0.2,0.2-0.4,0.4-0.4h0.8c0.2,0,0.4,0.2,0.4,0.4v12.4h5.8c0.2,0,0.4,0.2,0.4,0.4v0.6
			c0,0.2-0.2,0.4-0.4,0.4h-7c-0.2,0-0.4-0.2-0.4-0.4V132.5z"/>
		<path class="st0" d="M185.5,132.5c0-0.2,0.2-0.4,0.4-0.4h0.8c0.2,0,0.4,0.2,0.4,0.4v12.4h5.8c0.2,0,0.4,0.2,0.4,0.4v0.6
			c0,0.2-0.2,0.4-0.4,0.4h-7c-0.2,0-0.4-0.2-0.4-0.4V132.5z"/>
		<path class="st0" d="M204.3,132.5c0-0.2,0.2-0.4,0.4-0.4h0.8c0.2,0,0.4,0.2,0.4,0.4v13.3c0,0.2-0.2,0.4-0.4,0.4h-0.8
			c-0.2,0-0.4-0.2-0.4-0.4V132.5z"/>
		<path class="st0" d="M218.8,132.6c0-0.3,0.2-0.5,0.5-0.5h0.6c0.3,0,0.5,0.2,0.5,0.5v5.7l6.3-6c0.1-0.1,0.3-0.2,0.4-0.2h1
			c0.4,0,0.6,0.4,0.2,0.7l-6.4,5.9l6.7,6.8c0.1,0.1,0.1,0.6-0.3,0.6h-1c-0.1,0-0.3-0.1-0.4-0.1l-6.5-6.7v6.4c0,0.3-0.2,0.5-0.5,0.5
			h-0.6c-0.3,0-0.5-0.2-0.5-0.5V132.6z"/>
		<path class="st0" d="M240,132.5c0-0.2,0.2-0.4,0.4-0.4h7.9c0.2,0,0.4,0.2,0.4,0.4v0.6c0,0.2-0.2,0.4-0.4,0.4h-6.8v4.9h5.8
			c0.2,0,0.4,0.2,0.4,0.4v0.6c0,0.2-0.2,0.4-0.4,0.4h-5.8v5.1h6.8c0.2,0,0.4,0.2,0.4,0.4v0.6c0,0.2-0.2,0.4-0.4,0.4h-7.9
			c-0.2,0-0.4-0.2-0.4-0.4V132.5z"/>
		<path class="st0" d="M272.3,145.7l6.1-13.6c0.1-0.1,0.2-0.2,0.3-0.2h0.2c0.2,0,0.3,0.1,0.3,0.2l6.1,13.6c0.1,0.3,0,0.5-0.3,0.5
			h-0.8c-0.2,0-0.3-0.1-0.3-0.2l-1.5-3.3h-7.2l-1.5,3.3c0,0.1-0.2,0.2-0.3,0.2h-0.8C272.3,146.3,272.1,146,272.3,145.7z
			 M281.8,141.5c-1-2.2-2-4.4-2.9-6.6h-0.2l-2.9,6.6H281.8z"/>
		<path class="st0" d="M309.8,132.5c0-0.2,0.2-0.4,0.4-0.4h5.2c2.4,0,4.4,1.9,4.4,4.3c0,1.9-1.2,3.4-3,4.1l2.8,5.1
			c0.1,0.3,0,0.6-0.3,0.6h-1c-0.2,0-0.3-0.1-0.3-0.2l-2.7-5.3h-3.8v5.1c0,0.2-0.2,0.4-0.4,0.4h-0.8c-0.2,0-0.4-0.2-0.4-0.4V132.5z
			 M315.3,139.4c1.5,0,2.9-1.3,2.9-2.9c0-1.5-1.4-2.8-2.9-2.8h-3.9v5.8H315.3z"/>
		<path class="st0" d="M338.2,131.9c4,0,7.3,3.2,7.3,7.3c0,4-3.2,7.2-7.3,7.2c-4,0-7.2-3.2-7.2-7.2
			C330.9,135.2,334.1,131.9,338.2,131.9z M338.2,145c3.2,0,5.8-2.6,5.8-5.8c0-3.2-2.6-5.9-5.8-5.9c-3.2,0-5.8,2.7-5.8,5.9
			C332.3,142.4,335,145,338.2,145z"/>
		<path class="st0" d="M363.6,131.9c2,0,3.5,0.7,4.9,1.9c0.2,0.2,0.2,0.4,0,0.6l-0.5,0.5c-0.2,0.2-0.3,0.2-0.5,0
			c-1-0.9-2.5-1.5-3.8-1.5c-3.2,0-5.6,2.7-5.6,5.8c0,3.1,2.4,5.8,5.6,5.8c1.8,0,2.8-0.7,3.8-1.5c0.2-0.2,0.4-0.1,0.5-0.1l0.6,0.5
			c0.2,0.1,0.1,0.4,0,0.5c-1.4,1.3-3.1,2-4.9,2c-4,0-7.3-3.2-7.3-7.2C356.4,135.2,359.6,131.9,363.6,131.9z"/>
		<path class="st0" d="M380.5,132.6c0-0.3,0.2-0.5,0.5-0.5h0.6c0.3,0,0.5,0.2,0.5,0.5v5.7l6.3-6c0.1-0.1,0.3-0.2,0.4-0.2h1
			c0.4,0,0.6,0.4,0.2,0.7l-6.4,5.9l6.7,6.8c0.1,0.1,0.1,0.6-0.3,0.6h-1c-0.1,0-0.3-0.1-0.4-0.1l-6.5-6.7v6.4c0,0.3-0.2,0.5-0.5,0.5
			H381c-0.3,0-0.5-0.2-0.5-0.5V132.6z"/>
		<path class="st0" d="M400.9,144.1c0.1-0.1,0.2-0.3,0.3-0.4c0.2-0.3,0.4-0.4,0.7-0.2c0.1,0.1,1.6,1.5,3.4,1.5c1.6,0,2.7-1,2.7-2.2
			c0-1.4-1.2-2.2-3.5-3.2c-2.2-1-3.5-1.9-3.5-4.2c0-1.4,1.1-3.6,4.3-3.6c2,0,3.4,1,3.4,1c0.1,0.1,0.4,0.3,0.1,0.7
			c-0.1,0.1-0.2,0.3-0.2,0.4c-0.2,0.3-0.4,0.4-0.7,0.2c-0.1-0.1-1.4-0.9-2.6-0.9c-2.1,0-2.8,1.4-2.8,2.2c0,1.3,1,2.1,2.7,2.8
			c2.7,1.1,4.5,2.1,4.5,4.5c0,2.1-2,3.6-4.4,3.6c-2.4,0-4-1.4-4.2-1.6C400.9,144.7,400.7,144.5,400.9,144.1z"/>
		<path class="st0" d="M423.4,133.5h-3.5c-0.2,0-0.4-0.2-0.4-0.4v-0.6c0-0.2,0.2-0.4,0.4-0.4h8.5c0.2,0,0.4,0.2,0.4,0.4v0.6
			c0,0.2-0.2,0.4-0.4,0.4H425v12.4c0,0.2-0.2,0.4-0.4,0.4h-0.8c-0.2,0-0.4-0.2-0.4-0.4V133.5z"/>
		<path class="st0" d="M437.2,145.7l6.1-13.6c0.1-0.1,0.2-0.2,0.3-0.2h0.2c0.2,0,0.3,0.1,0.3,0.2l6.1,13.6c0.1,0.3,0,0.5-0.3,0.5
			h-0.8c-0.2,0-0.3-0.1-0.3-0.2l-1.5-3.3h-7.1l-1.5,3.3c0,0.1-0.2,0.2-0.3,0.2h-0.8C437.3,146.3,437.1,146,437.2,145.7z
			 M446.8,141.5c-1-2.2-2-4.4-2.9-6.6h-0.2l-2.9,6.6H446.8z"/>
		<path class="st0" d="M461.4,132.5c0-0.2,0.2-0.4,0.4-0.4h5.2c2.4,0,4.4,1.9,4.4,4.3c0,1.9-1.2,3.4-3,4.1l2.8,5.1
			c0.1,0.3,0,0.6-0.3,0.6h-1c-0.2,0-0.3-0.1-0.3-0.2l-2.7-5.3H463v5.1c0,0.2-0.2,0.4-0.4,0.4h-0.8c-0.2,0-0.4-0.2-0.4-0.4V132.5z
			 M466.9,139.4c1.6,0,2.9-1.3,2.9-2.9c0-1.5-1.4-2.8-2.9-2.8H463v5.8H466.9z"/>
	</g>
	<g>
		<path class="st1" d="M352.8,13.5c-2.7,1.1-5.2,2.3-8,3.2c-12.1,3.9-24.3,7.7-36.5,11.5c-15,4.6-30,9.3-45,13.8
			c-9,2.7-18.1,5.2-27.1,7.9c-8.9,2.6-17.8,5.3-26.7,7.8c-6.4,1.8-12.8,3.5-19.1,5.2c-3.7,1-7.3,2-11,3c-0.9,0.3-1.9,0.5-2.8,0.7
			c-0.1-0.2-0.1-0.4-0.2-0.6c1.5-0.6,3-1.2,4.5-1.7c8.7-2.8,17.4-5.6,26.2-8.3c15-4.6,30-9.2,45-13.7c14.1-4.3,28.3-8.5,42.4-12.6
			c13.5-3.9,27-7.6,40.5-11.4c5.3-1.5,10.5-3.1,15.7-4.6C351.5,13.5,352.2,13.5,352.8,13.5z"/>
		<path class="st1" d="M39.4,140.7c-1.1-0.8-2.3-1.5-3.4-2.4c-10.3-8.4-18.2-18.6-23.2-31c-3.3-8-5.2-16.2-6.3-24.8
			c-1.8-14.2,0.9-27.2,8.8-39c5.6-8.4,13.3-14.4,22.8-18.1c6.2-2.4,12.6-4.1,19.3-4.3c9-0.3,17.5,1.7,25.8,5.1
			c5.3,2.1,10.3,4.7,15.5,7.1c7.6,3.5,14.2,2.2,20.4-3.5c4.2-3.9,8.6-7.8,13.5-10.6c8.3-4.6,17.3-6.3,26.6-2.1
			c4.6,2.1,8.4,5.3,12.7,9c-2.4,0.8-4.3,1.3-6.1,2c-2,0.7-4.1,1.4-5.9,2.5c-4.8,2.7-6.9,7.7-5.7,12.5c1.2,4.8,5,8.2,10.6,8.1
			c4.4,0,8.8-0.8,13-1.7c5.8-1.2,11.5-2.9,17.3-4.3c8.3-2,16.6-4.1,24.9-6.1c13.6-3.2,27.2-6.5,40.8-9.6c9.6-2.2,19.2-4.3,28.7-6.4
			c2.7-0.6,5.3-1.3,8-1.9c0.6-0.1,1.3-0.2,1.9-0.3c0.1,0.2,0.1,0.4,0.2,0.5c-1.2,0.5-2.5,1-3.7,1.4c-11.6,3.4-23.2,6.9-34.8,10.3
			c-13,3.8-26,7.7-39,11.4c-9.4,2.7-18.9,5.3-28.4,7.9c-6.8,1.9-13.6,4-20.5,5.7c-5.3,1.3-10.7,1.5-15.9-0.7
			c-12-5.1-15.1-20.3-6.1-29.8c1-1,1.9-2,3-3.2c-3.1-1.4-6.2-1-9.4-0.5c-7,1.2-12.3,5.4-17.5,10c-3.3,2.9-6.9,5.8-10.7,7.9
			c-6.4,3.4-13.1,2.7-19.6,0c-7.1-3-13.9-6.5-21.1-9.3c-8-3.2-16.4-4.3-24.8-2.7C31.7,33,18.7,43.9,13.1,62.9
			C11.4,68.9,11,75,11.4,81.2c0.7,10.8,2.9,21.2,7.4,31c4.5,9.9,10.7,18.5,18.7,25.8c0.8,0.7,1.5,1.4,2.3,2.2
			C39.6,140.4,39.5,140.5,39.4,140.7z"/>
		<path class="st1" d="M333.2,27.2C282,44.9,230.1,60.3,177.7,74.1c-0.1-0.3-0.2-0.6-0.3-0.9C228.8,55.9,280.6,40.3,333.2,27.2z"/>
	</g>
</g>
</svg>
